<svg xmlns="http://www.w3.org/2000/svg" xmlns:xlink="http://www.w3.org/1999/xlink" width="834" height="1194" viewBox="0 0 834 1194">
<defs>
    <linearGradient id="wall" x1="0" y1="0" x2="0" y2="1">
      <stop offset="0" stop-color="#7C8A90"></stop><stop offset="0.55" stop-color="#5D6A72"></stop><stop offset="1" stop-color="#47535B"></stop>
    </linearGradient>
    <linearGradient id="floor" x1="0" y1="0" x2="0" y2="1">
      <stop offset="0" stop-color="#5C5349"></stop><stop offset="1" stop-color="#3A342E"></stop>
    </linearGradient>
    <linearGradient id="daylight" x1="0" y1="0" x2="1" y2="1">
      <stop offset="0" stop-color="#FFFFFF" stop-opacity=".30"></stop><stop offset="1" stop-color="#FFFFFF" stop-opacity="0"></stop>
    </linearGradient>
    <linearGradient id="shirt" x1="0" y1="0" x2="1" y2="0">
      <stop offset="0" stop-color="#9FB3BC"></stop><stop offset="1" stop-color="#778B96"></stop>
    </linearGradient>
    <linearGradient id="pants" x1="0" y1="0" x2="1" y2="0">
      <stop offset="0" stop-color="#39454E"></stop><stop offset="1" stop-color="#28323A"></stop>
    </linearGradient>
    <radialGradient id="vig" cx="50%" cy="45%" r="72%">
      <stop offset="55%" stop-color="#000" stop-opacity="0"></stop><stop offset="100%" stop-color="#000" stop-opacity=".45"></stop>
    </radialGradient>
    <filter id="soft"><feGaussianBlur stdDeviation="1.1"></feGaussianBlur></filter>
    <filter id="grain">
      <feTurbulence type="fractalNoise" baseFrequency="0.9" numOctaves="2" result="n"></feTurbulence>
      <feColorMatrix type="saturate" values="0" in="n" result="g"></feColorMatrix>
      <feComponentTransfer in="g"><feFuncA type="linear" slope=".085"></feFuncA></feComponentTransfer>
    </filter>

    <!-- the room + the patient, as the camera sees them -->
    <symbol id="scene" viewBox="0 0 400 600" preserveAspectRatio="xMidYMid slice">
      <rect width="400" height="600" fill="url(#wall)"></rect>
      <path d="M0 470 L400 440 L400 600 L0 600 Z" fill="url(#floor)"></path>
      <path d="M0 470 L400 440" stroke="#6B6157" stroke-width="3" opacity=".7"></path>
      <path d="M18 60 L150 40 L150 250 L18 262 Z" fill="url(#daylight)"></path>
      <rect x="300" y="330" width="86" height="14" rx="4" fill="#3E4950" opacity=".85"></rect>
      <!-- chair the patient stands up from -->
      <g opacity=".92">
        <rect x="150" y="386" width="116" height="15" rx="4" fill="#4E453C"></rect>
        <rect x="243" y="288" width="16" height="102" rx="5" fill="#463E36"></rect>
        <rect x="157" y="398" width="10" height="96" rx="4" fill="#3E372F"></rect>
        <rect x="249" y="398" width="10" height="92" rx="4" fill="#443C34"></rect>
      </g>
      <!-- patient: mid sit-to-stand, facing camera -->
      <g filter="url(#soft)">
        <ellipse cx="200" cy="176" rx="80" ry="26" fill="#000" opacity=".0"></ellipse>
        <path d="M186 178 h28 v26 h-28 z" fill="#C39A78"></path>
        <ellipse cx="200" cy="152" rx="27" ry="30" fill="#C89E7B"></ellipse>
        <path d="M173 146 q27 -30 54 0 q2 -34 -27 -34 q-29 0 -27 34 z" fill="#3A2E28"></path>
        <path d="M168 200 q32 -14 64 0 l10 108 q-42 12 -84 0 z" fill="url(#shirt)"></path>
        <path d="M170 206 q-16 34 -22 70 q-3 16 6 24 l14 -6 q-6 -8 -3 -18 q8 -30 18 -56 z" fill="url(#shirt)"></path>
        <path d="M230 206 q16 34 22 70 q3 16 -6 24 l-14 -6 q6 -8 3 -18 q-8 -30 -18 -56 z" fill="url(#shirt)"></path>
        <ellipse cx="160" cy="306" rx="9" ry="11" fill="#C39A78"></ellipse>
        <ellipse cx="240" cy="306" rx="9" ry="11" fill="#C39A78"></ellipse>
        <path d="M158 306 q42 -16 84 0 l-4 34 q-38 12 -76 0 z" fill="url(#pants)"></path>
        <path d="M164 336 q16 8 32 2 l6 96 h-30 z" fill="url(#pants)"></path>
        <path d="M236 336 q-16 8 -32 2 l-6 96 h30 z" fill="url(#pants)"></path>
        <path d="M174 430 h28 l-4 62 h-22 z" fill="#2E3840"></path>
        <path d="M198 430 h28 l-2 62 h-22 z" fill="#333D45"></path>
        <path d="M168 490 h34 q6 0 6 8 v6 h-44 q0 -14 4 -14 z" fill="#EDEFF0"></path>
        <path d="M200 490 h34 q4 0 4 14 h-44 v-6 q0 -8 6 -8 z" fill="#E4E7E8"></path>
      </g>
      <ellipse cx="200" cy="502" rx="72" ry="12" fill="#241F1A" opacity=".45"></ellipse>
      <rect width="400" height="600" fill="url(#vig)"></rect>
      <rect width="400" height="600" filter="url(#grain)" opacity=".55"></rect>
    </symbol>

    <!-- pose overlay, aligned to the figure above -->
    <symbol id="pose" viewBox="0 0 400 600">
      <g stroke="#3BE3D2" stroke-width="2.6" stroke-linecap="round" opacity=".95">
        <path d="M200 182 L200 236"></path>
        <path d="M168 202 L232 202"></path><path d="M168 202 L200 236"></path><path d="M232 202 L200 236"></path>
        <path d="M168 202 L154 268"></path><path d="M154 268 L160 306"></path>
        <path d="M232 202 L246 268"></path><path d="M246 268 L240 306"></path>
        <path d="M200 236 L170 318"></path><path d="M200 236 L230 318"></path><path d="M170 318 L230 318"></path>
        <path d="M170 318 L182 428"></path><path d="M182 428 L184 492"></path>
        <path d="M230 318 L216 428"></path><path d="M216 428 L214 492"></path>
      </g>
      <g fill="#FFC24D">
        <circle cx="200" cy="152" r="5.4"></circle><circle cx="200" cy="236" r="5.4"></circle>
        <circle cx="168" cy="202" r="5.4"></circle><circle cx="232" cy="202" r="5.4"></circle>
        <circle cx="154" cy="268" r="5"></circle><circle cx="246" cy="268" r="5"></circle>
        <circle cx="160" cy="306" r="5"></circle><circle cx="240" cy="306" r="5"></circle>
        <circle cx="170" cy="318" r="5.4"></circle><circle cx="230" cy="318" r="5.4"></circle>
        <circle cx="182" cy="428" r="5.4"></circle><circle cx="216" cy="428" r="5.4"></circle>
        <circle cx="184" cy="492" r="5"></circle><circle cx="214" cy="492" r="5"></circle>
      </g>
    </symbol>

    <!-- skeleton only, for replay: no video was ever stored -->
    <symbol id="poseonly" viewBox="0 0 400 600">
      <g stroke="#3BE3D2" stroke-width="2.6" stroke-linecap="round">
        <path d="M200 182 L200 236"></path><path d="M168 202 L232 202"></path><path d="M168 202 L200 236"></path><path d="M232 202 L200 236"></path>
        <path d="M168 202 L154 268"></path><path d="M154 268 L160 306"></path><path d="M232 202 L246 268"></path><path d="M246 268 L240 306"></path>
        <path d="M200 236 L170 318"></path><path d="M200 236 L230 318"></path><path d="M170 318 L230 318"></path>
        <path d="M170 318 L182 428"></path><path d="M182 428 L184 492"></path><path d="M230 318 L216 428"></path><path d="M216 428 L214 492"></path>
      </g>
      <circle cx="200" cy="152" r="17" fill="none" stroke="#3BE3D2" stroke-width="2.6"></circle>
      <g fill="#FFC24D">
        <circle cx="200" cy="236" r="5"></circle><circle cx="168" cy="202" r="5"></circle><circle cx="232" cy="202" r="5"></circle>
        <circle cx="154" cy="268" r="4.6"></circle><circle cx="246" cy="268" r="4.6"></circle><circle cx="160" cy="306" r="4.6"></circle><circle cx="240" cy="306" r="4.6"></circle>
        <circle cx="170" cy="318" r="5"></circle><circle cx="230" cy="318" r="5"></circle><circle cx="216" cy="428" r="5"></circle><circle cx="184" cy="492" r="4.6"></circle><circle cx="214" cy="492" r="4.6"></circle>
      </g>
      <circle cx="182" cy="428" r="9" fill="#B5410A" stroke="#0C1414" stroke-width="2"></circle>
    </symbol>

    <!-- line icons -->
    <symbol id="i-chev" viewBox="0 0 24 24"><path d="M9 5l7 7-7 7" fill="none" stroke="currentColor" stroke-width="2" stroke-linecap="round" stroke-linejoin="round"></path></symbol>
    <symbol id="i-check" viewBox="0 0 24 24"><path d="M4 12.5l5.2 5.2L20 7" fill="none" stroke="currentColor" stroke-width="2.2" stroke-linecap="round" stroke-linejoin="round"></path></symbol>
    <symbol id="i-cam" viewBox="0 0 24 24"><path d="M3 8.5A2.5 2.5 0 015.5 6h1.7l1.2-1.8h6.2L15.8 6h2.7A2.5 2.5 0 0121 8.5v8A2.5 2.5 0 0118.5 19h-13A2.5 2.5 0 013 16.5z" fill="none" stroke="currentColor" stroke-width="1.8" stroke-linejoin="round"></path><circle cx="12" cy="12.4" r="3.4" fill="none" stroke="currentColor" stroke-width="1.8"></circle></symbol>
    <symbol id="i-sound" viewBox="0 0 24 24"><path d="M4 9.5h3.5L12 5.5v13L7.5 14.5H4z" fill="none" stroke="currentColor" stroke-width="1.8" stroke-linejoin="round"></path><path d="M15.5 9.2a4 4 0 010 5.6M18 6.8a7.5 7.5 0 010 10.4" fill="none" stroke="currentColor" stroke-width="1.8" stroke-linecap="round"></path></symbol>
    <symbol id="i-shield" viewBox="0 0 24 24"><path d="M12 3l7.5 2.8v6c0 4.6-3.1 8.4-7.5 9.7-4.4-1.3-7.5-5.1-7.5-9.7v-6z" fill="none" stroke="currentColor" stroke-width="1.8" stroke-linejoin="round"></path><path d="M12 8.4v4.4M12 15.8h.01" stroke="currentColor" stroke-width="1.9" stroke-linecap="round"></path></symbol>
    <symbol id="i-flame" viewBox="0 0 24 24"><path d="M12 3.5s5.2 4 5.2 8.6a5.2 5.2 0 01-10.4 0c0-1.8.9-3.1 1.8-4.2.5 1 1.3 1.7 2.1 1.9-.4-2.4.2-4.6 1.3-6.3z" fill="none" stroke="currentColor" stroke-width="1.8" stroke-linejoin="round"></path></symbol>
    <symbol id="i-play" viewBox="0 0 24 24"><path d="M7.5 5.2l11 6.8-11 6.8z" fill="none" stroke="currentColor" stroke-width="1.9" stroke-linejoin="round"></path></symbol>
    <symbol id="i-pause" viewBox="0 0 24 24"><path d="M9 5v14M15 5v14" stroke="currentColor" stroke-width="2" stroke-linecap="round"></path></symbol>
    <symbol id="i-skip" viewBox="0 0 24 24"><path d="M6 5l9 7-9 7zM18 5v14" fill="none" stroke="currentColor" stroke-width="1.9" stroke-linejoin="round" stroke-linecap="round"></path></symbol>
    <symbol id="i-x" viewBox="0 0 24 24"><path d="M6 6l12 12M18 6L6 18" stroke="currentColor" stroke-width="2" stroke-linecap="round"></path></symbol>
    <symbol id="i-back" viewBox="0 0 24 24"><path d="M15 5l-7 7 7 7" fill="none" stroke="currentColor" stroke-width="2" stroke-linecap="round" stroke-linejoin="round"></path></symbol>
    <symbol id="i-home" viewBox="0 0 24 24"><path d="M4 10.5L12 4l8 6.5V20h-5.5v-5.5h-5V20H4z" fill="none" stroke="currentColor" stroke-width="1.7" stroke-linejoin="round"></path></symbol>
    <symbol id="i-chart" viewBox="0 0 24 24"><path d="M4 20h16M7 16.5V10M12 16.5V5.5M17 16.5v-4.5" fill="none" stroke="currentColor" stroke-width="1.8" stroke-linecap="round"></path></symbol>
    <symbol id="i-list" viewBox="0 0 24 24"><path d="M4 6.5h16M4 12h16M4 17.5h10" stroke="currentColor" stroke-width="1.8" stroke-linecap="round"></path></symbol>
    <symbol id="i-lock" viewBox="0 0 24 24"><rect x="4.5" y="10" width="15" height="10" rx="2.5" fill="none" stroke="currentColor" stroke-width="1.8"></rect><path d="M8 10V7.8a4 4 0 018 0V10" fill="none" stroke="currentColor" stroke-width="1.8"></path></symbol>
    <symbol id="i-body" viewBox="0 0 24 24"><circle cx="12" cy="4.6" r="2.4" fill="none" stroke="currentColor" stroke-width="1.7"></circle><path d="M12 7.4v7m0 0l-3 6.2m3-6.2l3 6.2M6.5 10.2L12 8.6l5.5 1.6" fill="none" stroke="currentColor" stroke-width="1.7" stroke-linecap="round"></path></symbol>
  </defs>
<rect id="div-0" x="0" y="0" width="834" height="1194" rx="4" fill="#ecf0f1"/>
<rect id="div-1" x="0" y="0" width="834" height="72" fill="#ffffff"/>
<rect id="div-2" x="36" y="22" width="28" height="28" rx="7" fill="#0d6e68"/>
<text id="h2-3" x="80" y="39.51" font-family="IBM Plex Sans" font-size="17" font-weight="600" fill="#101617" letter-spacing="-0.255" xml:space="preserve">Rehab Coach</text>
<text id="span-4" x="219.2" y="38.99" font-family="IBM Plex Sans" font-size="15" font-weight="500" fill="#0d6e68" xml:space="preserve">Today</text>
<text id="span-5" x="284.2" y="38.99" font-family="IBM Plex Sans" font-size="15" font-weight="400" fill="#47575a" xml:space="preserve">Progress</text>
<text id="span-6" x="367.2" y="38.99" font-family="IBM Plex Sans" font-size="15" font-weight="400" fill="#47575a" xml:space="preserve">Program</text>
<text id="span-7" x="449.2" y="38.99" font-family="IBM Plex Sans" font-size="15" font-weight="400" fill="#47575a" xml:space="preserve">Sharing</text>
<rect id="chip-k-warn-8" x="663.38" y="21.83" width="86.63" height="28.33" rx="4" fill="#f8ebd9"/>
<svg id="svg-9" x="672.38" y="29.48" width="13" height="13" viewBox="0 0 13 13" preserveAspectRatio="xMidYMid meet"><use href="#i-flame"></use></svg>
<text id="chip-k-warn-10" x="690.38" y="37.74" font-family="IBM Plex Mono" font-size="11.5" font-weight="500" fill="#a75a0b" letter-spacing="0.23" xml:space="preserve">12 DAYS</text>
<rect id="div-11" x="766" y="20" width="32" height="32" rx="16" fill="#dcebe8"/>
<text id="lb-12" x="36" y="107.2" font-family="IBM Plex Mono" font-size="10.5" font-weight="500" fill="#7c8c8f" letter-spacing="1.05" xml:space="preserve">TUESDAY · WEEK 3 · 1 OF 3 DONE</text>
<text id="d1-13" x="36" y="143.05" font-family="IBM Plex Sans" font-size="34" font-weight="600" fill="#101617" letter-spacing="-1.02" xml:space="preserve">Good morning, Maya</text>
<rect id="card-hair-14" x="36" y="171.66" width="460" height="144.84" rx="10" fill="#ffffff" stroke="#d6dedf" stroke-width="1"/>
<text id="h2-15" x="54" y="205.23" font-family="IBM Plex Sans" font-size="17" font-weight="600" fill="#101617" letter-spacing="-0.255" xml:space="preserve">How is the knee today?</text>
<rect id="seg-16" x="54" y="225.78" width="424" height="41.16" rx="8" fill="#e2e8e9"/>
<text id="div-17" x="109.66" y="248.62" font-family="IBM Plex Sans" font-size="13.5" font-weight="500" fill="#47575a" xml:space="preserve">Good</text>
<rect id="on-18" x="196.33" y="228.78" width="139.34" height="35.16" rx="6" fill="#ffffff"/>
<text id="on-19" x="247.5" y="248.62" font-family="IBM Plex Sans" font-size="13.5" font-weight="500" fill="#101617" xml:space="preserve">So-so</text>
<text id="div-20" x="390.83" y="248.62" font-family="IBM Plex Sans" font-size="13.5" font-weight="500" fill="#47575a" xml:space="preserve">Sore</text>
<text id="b2-21" x="54" y="290.77" font-family="IBM Plex Sans" font-size="13.5" font-weight="400" fill="#47575a" xml:space="preserve">We will hold today's intensity where it was and watch the left side.</text>
<text id="lb-22" x="36" y="341.71" font-family="IBM Plex Mono" font-size="10.5" font-weight="500" fill="#7c8c8f" letter-spacing="1.05" xml:space="preserve">TODAY'S PROGRAM</text>
<rect id="exrow-23" x="36" y="363.41" width="460" height="84" rx="10" fill="#ffffff" opacity="0.72"/>
<rect id="thumb-24" x="52" y="379.41" width="52" height="52" rx="8" fill="#e1f0e7"/>
<svg id="svg-25" x="67" y="394.41" width="22" height="22" viewBox="0 0 22 22" preserveAspectRatio="xMidYMid meet"><use href="#i-check"></use></svg>
<text id="span-26" x="116" y="398.74" font-family="IBM Plex Sans" font-size="16" font-weight="500" fill="#101617" xml:space="preserve">Seated knee extension</text>
<text id="mono-27" x="116" y="420.01" font-family="IBM Plex Mono" font-size="11.5" font-weight="400" fill="#1f7a4d" xml:space="preserve">3 × 10 · FINISHED · FORM 84</text>
<rect id="card-lift-28" x="36" y="463.41" width="460" height="152.13" rx="10" fill="#ffffff"/>
<rect id="thumb-29" x="54" y="481.41" width="52" height="52" rx="8" fill="#dcebe8"/>
<svg id="svg-30" x="68" y="495.41" width="24" height="24" viewBox="0 0 24 24" preserveAspectRatio="xMidYMid meet"><use href="#i-body"></use></svg>
<text id="span-31" x="116" y="501.24" font-family="IBM Plex Sans" font-size="17" font-weight="600" fill="#101617" xml:space="preserve">Sit to stand</text>
<text id="mono-32" x="116" y="522.71" font-family="IBM Plex Mono" font-size="11.5" font-weight="400" fill="#7c8c8f" xml:space="preserve">2 SETS × 8 · UP NEXT</text>
<rect id="btn-sm-33" x="382" y="485.41" width="96" height="44" rx="8" fill="#0d6e68"/>
<svg id="svg-34" x="402" y="498.91" width="17" height="17" viewBox="0 0 17 17" preserveAspectRatio="xMidYMid meet"><use href="#i-cam"></use></svg>
<text id="btn-sm-35" x="427" y="509.66" font-family="IBM Plex Sans" font-size="13.5" font-weight="500" fill="#ffffff" xml:space="preserve">Start</text>
<rect id="sep-36" x="54" y="545.41" width="424" height="1" fill="#d6dedf"/>
<text id="b-37" x="54" y="570.24" font-family="IBM Plex Sans" font-size="13.5" font-weight="600" fill="#101617" xml:space="preserve">Why this one —</text>
<text id="b2-38" x="153" y="570.24" font-family="IBM Plex Sans" font-size="13.5" font-weight="400" fill="#47575a" xml:space="preserve">standing up without your hands is the movement</text>
<text id="b2-39" x="54" y="589.8" font-family="IBM Plex Sans" font-size="13.5" font-weight="400" fill="#47575a" xml:space="preserve">your knee has to relearn first.</text>
<rect id="exrow-40" x="36" y="631.53" width="460" height="84" rx="10" fill="#ffffff"/>
<rect id="thumb-41" x="52" y="647.53" width="52" height="52" rx="8" fill="#e2e8e9"/>
<svg id="svg-42" x="66" y="661.53" width="24" height="24" viewBox="0 0 24 24" preserveAspectRatio="xMidYMid meet"><use href="#i-body"></use></svg>
<text id="span-43" x="116" y="666.86" font-family="IBM Plex Sans" font-size="16" font-weight="500" fill="#101617" xml:space="preserve">Standing hamstring curl</text>
<text id="mono-44" x="116" y="688.13" font-family="IBM Plex Mono" font-size="11.5" font-weight="400" fill="#7c8c8f" xml:space="preserve">3 × 10</text>
<svg id="svg-45" x="462" y="664.53" width="18" height="18" viewBox="0 0 18 18" preserveAspectRatio="xMidYMid meet"><use href="#i-chev"></use></svg>
<rect id="card-hair-46" x="518" y="98" width="280" height="192.98" rx="10" fill="#ffffff" stroke="#d6dedf" stroke-width="1"/>
<text id="lb-47" x="532" y="121.2" font-family="IBM Plex Mono" font-size="10.5" font-weight="500" fill="#7c8c8f" letter-spacing="1.05" xml:space="preserve">THIS WEEK</text>
<text id="mono-48" x="544.84" y="147.51" font-family="IBM Plex Mono" font-size="10" font-weight="400" fill="#7c8c8f" xml:space="preserve">M</text>
<rect id="div-49" x="532" y="158.09" width="31.7" height="26" rx="5" fill="#0d6e68"/>
<text id="mono-50" x="581.56" y="147.51" font-family="IBM Plex Mono" font-size="10" font-weight="400" fill="#7c8c8f" xml:space="preserve">T</text>
<rect id="div-51" x="568.7" y="158.09" width="31.72" height="26" rx="5" fill="#0d6e68"/>
<text id="mono-52" x="618.27" y="147.51" font-family="IBM Plex Mono" font-size="10" font-weight="400" fill="#7c8c8f" xml:space="preserve">W</text>
<rect id="div-53" x="605.42" y="158.09" width="31.7" height="26" rx="5" fill="#0d6e68"/>
<text id="mono-54" x="654.98" y="147.51" font-family="IBM Plex Mono" font-size="10" font-weight="400" fill="#7c8c8f" xml:space="preserve">T</text>
<rect id="div-55" x="642.13" y="158.09" width="31.72" height="26" rx="5" fill="#0d6e68"/>
<text id="mono-56" x="691.7" y="147.51" font-family="IBM Plex Mono" font-size="10" font-weight="400" fill="#7c8c8f" xml:space="preserve">F</text>
<rect id="div-57" x="678.84" y="158.09" width="31.72" height="26" rx="5" fill="#0d6e68"/>
<text id="mono-58" x="728.42" y="147.51" font-family="IBM Plex Mono" font-size="10" font-weight="400" fill="#7c8c8f" xml:space="preserve">S</text>
<rect id="div-59" x="715.56" y="158.09" width="31.72" height="26" rx="5" fill="#e2e8e9"/>
<text id="mono-60" x="765.14" y="147.51" font-family="IBM Plex Mono" font-size="10" font-weight="400" fill="#7c8c8f" xml:space="preserve">S</text>
<rect id="div-61" x="752.28" y="158.09" width="31.72" height="26" rx="5" fill="#dcebe8" stroke="#0d6e68" stroke-width="1.5"/>
<rect id="sep-62" x="532" y="196.09" width="252" height="1" fill="#d6dedf"/>
<text id="lb-63" x="532" y="218.3" font-family="IBM Plex Mono" font-size="10.5" font-weight="500" fill="#7c8c8f" letter-spacing="1.05" xml:space="preserve">FORM</text>
<text id="mono-64" x="532" y="248.04" font-family="IBM Plex Mono" font-size="24" font-weight="600" fill="#101617" xml:space="preserve">82</text>
<text id="mono-65" x="532" y="271.28" font-family="IBM Plex Mono" font-size="10.5" font-weight="400" fill="#1f7a4d" xml:space="preserve">+6</text>
<text id="lb-66" x="665" y="218.3" font-family="IBM Plex Mono" font-size="10.5" font-weight="500" fill="#7c8c8f" letter-spacing="1.05" xml:space="preserve">DISCOMFORT</text>
<text id="mono-67" x="665" y="248.04" font-family="IBM Plex Mono" font-size="24" font-weight="600" fill="#101617" xml:space="preserve">2.1</text>
<text id="mono-68" x="665" y="271.28" font-family="IBM Plex Mono" font-size="10.5" font-weight="400" fill="#1f7a4d" xml:space="preserve">−0.4</text>
<rect id="card-hair-69" x="518" y="304.98" width="280" height="138.83" rx="10" fill="#ffffff" stroke="#d6dedf" stroke-width="1"/>
<text id="lb-70" x="532" y="328.19" font-family="IBM Plex Mono" font-size="10.5" font-weight="500" fill="#7c8c8f" letter-spacing="1.05" xml:space="preserve">FROM RUTH</text>
<text id="b2-71" x="532" y="355.83" font-family="IBM Plex Sans" font-size="14" font-weight="400" fill="#47575a" xml:space="preserve">“The left knee is catching up nicely.</text>
<text id="b2-72" x="532" y="376.13" font-family="IBM Plex Sans" font-size="14" font-weight="400" fill="#47575a" xml:space="preserve">Keep the lowering slow — three full</text>
<text id="b2-73" x="532" y="396.42" font-family="IBM Plex Sans" font-size="14" font-weight="400" fill="#47575a" xml:space="preserve">seconds.”</text>
<text id="cap-74" x="532" y="423.8" font-family="IBM Plex Sans" font-size="12" font-weight="400" fill="#7c8c8f" xml:space="preserve">Monday, after reviewing your session</text>
<rect id="sunk-75" x="518" y="457.81" width="280" height="109.69" rx="10" fill="#e2e8e9"/>
<svg id="svg-76" x="532" y="471.81" width="15" height="15" viewBox="0 0 15 15" preserveAspectRatio="xMidYMid meet"><use href="#i-shield"></use></svg>
<text id="lb-77" x="554" y="481.06" font-family="IBM Plex Mono" font-size="10.5" font-weight="500" fill="#7c8c8f" letter-spacing="1.05" xml:space="preserve">SOMETHING NOT RIGHT?</text>
<text id="b2-78" x="532" y="506.65" font-family="IBM Plex Sans" font-size="13.5" font-weight="400" fill="#47575a" xml:space="preserve">If pain is severe or new, stop and</text>
<text id="b2-79" x="532" y="526.21" font-family="IBM Plex Sans" font-size="13.5" font-weight="400" fill="#47575a" xml:space="preserve">contact Ruth. In an emergency call your</text>
<text id="b2-80" x="532" y="545.77" font-family="IBM Plex Sans" font-size="13.5" font-weight="400" fill="#47575a" xml:space="preserve">local emergency number.</text>
<svg id="svg-81" x="36" y="1156.91" width="14" height="14" viewBox="0 0 14 14" preserveAspectRatio="xMidYMid meet"><use href="#i-shield"></use></svg>
<text id="span-82" x="58" y="1165.82" font-family="IBM Plex Sans" font-size="11.5" font-weight="400" fill="#7c8c8f" xml:space="preserve">Coaching and monitoring aid — not a medical device. It does not diagnose or replace your clinician.</text>
</svg>