<svg xmlns="http://www.w3.org/2000/svg" xmlns:xlink="http://www.w3.org/1999/xlink" width="1194" height="834" viewBox="0 0 1194 834">
<defs>
    <linearGradient id="wall" x1="0" y1="0" x2="0" y2="1">
      <stop offset="0" stop-color="#7C8A90"></stop><stop offset="0.55" stop-color="#5D6A72"></stop><stop offset="1" stop-color="#47535B"></stop>
    </linearGradient>
    <linearGradient id="floor" x1="0" y1="0" x2="0" y2="1">
      <stop offset="0" stop-color="#5C5349"></stop><stop offset="1" stop-color="#3A342E"></stop>
    </linearGradient>
    <linearGradient id="daylight" x1="0" y1="0" x2="1" y2="1">
      <stop offset="0" stop-color="#FFFFFF" stop-opacity=".30"></stop><stop offset="1" stop-color="#FFFFFF" stop-opacity="0"></stop>
    </linearGradient>
    <linearGradient id="shirt" x1="0" y1="0" x2="1" y2="0">
      <stop offset="0" stop-color="#9FB3BC"></stop><stop offset="1" stop-color="#778B96"></stop>
    </linearGradient>
    <linearGradient id="pants" x1="0" y1="0" x2="1" y2="0">
      <stop offset="0" stop-color="#39454E"></stop><stop offset="1" stop-color="#28323A"></stop>
    </linearGradient>
    <radialGradient id="vig" cx="50%" cy="45%" r="72%">
      <stop offset="55%" stop-color="#000" stop-opacity="0"></stop><stop offset="100%" stop-color="#000" stop-opacity=".45"></stop>
    </radialGradient>
    <filter id="soft"><feGaussianBlur stdDeviation="1.1"></feGaussianBlur></filter>
    <filter id="grain">
      <feTurbulence type="fractalNoise" baseFrequency="0.9" numOctaves="2" result="n"></feTurbulence>
      <feColorMatrix type="saturate" values="0" in="n" result="g"></feColorMatrix>
      <feComponentTransfer in="g"><feFuncA type="linear" slope=".085"></feFuncA></feComponentTransfer>
    </filter>

    <!-- the room + the patient, as the camera sees them -->
    <symbol id="scene" viewBox="0 0 400 600" preserveAspectRatio="xMidYMid slice">
      <rect width="400" height="600" fill="url(#wall)"></rect>
      <path d="M0 470 L400 440 L400 600 L0 600 Z" fill="url(#floor)"></path>
      <path d="M0 470 L400 440" stroke="#6B6157" stroke-width="3" opacity=".7"></path>
      <path d="M18 60 L150 40 L150 250 L18 262 Z" fill="url(#daylight)"></path>
      <rect x="300" y="330" width="86" height="14" rx="4" fill="#3E4950" opacity=".85"></rect>
      <!-- chair the patient stands up from -->
      <g opacity=".92">
        <rect x="150" y="386" width="116" height="15" rx="4" fill="#4E453C"></rect>
        <rect x="243" y="288" width="16" height="102" rx="5" fill="#463E36"></rect>
        <rect x="157" y="398" width="10" height="96" rx="4" fill="#3E372F"></rect>
        <rect x="249" y="398" width="10" height="92" rx="4" fill="#443C34"></rect>
      </g>
      <!-- patient: mid sit-to-stand, facing camera -->
      <g filter="url(#soft)">
        <ellipse cx="200" cy="176" rx="80" ry="26" fill="#000" opacity=".0"></ellipse>
        <path d="M186 178 h28 v26 h-28 z" fill="#C39A78"></path>
        <ellipse cx="200" cy="152" rx="27" ry="30" fill="#C89E7B"></ellipse>
        <path d="M173 146 q27 -30 54 0 q2 -34 -27 -34 q-29 0 -27 34 z" fill="#3A2E28"></path>
        <path d="M168 200 q32 -14 64 0 l10 108 q-42 12 -84 0 z" fill="url(#shirt)"></path>
        <path d="M170 206 q-16 34 -22 70 q-3 16 6 24 l14 -6 q-6 -8 -3 -18 q8 -30 18 -56 z" fill="url(#shirt)"></path>
        <path d="M230 206 q16 34 22 70 q3 16 -6 24 l-14 -6 q6 -8 3 -18 q-8 -30 -18 -56 z" fill="url(#shirt)"></path>
        <ellipse cx="160" cy="306" rx="9" ry="11" fill="#C39A78"></ellipse>
        <ellipse cx="240" cy="306" rx="9" ry="11" fill="#C39A78"></ellipse>
        <path d="M158 306 q42 -16 84 0 l-4 34 q-38 12 -76 0 z" fill="url(#pants)"></path>
        <path d="M164 336 q16 8 32 2 l6 96 h-30 z" fill="url(#pants)"></path>
        <path d="M236 336 q-16 8 -32 2 l-6 96 h30 z" fill="url(#pants)"></path>
        <path d="M174 430 h28 l-4 62 h-22 z" fill="#2E3840"></path>
        <path d="M198 430 h28 l-2 62 h-22 z" fill="#333D45"></path>
        <path d="M168 490 h34 q6 0 6 8 v6 h-44 q0 -14 4 -14 z" fill="#EDEFF0"></path>
        <path d="M200 490 h34 q4 0 4 14 h-44 v-6 q0 -8 6 -8 z" fill="#E4E7E8"></path>
      </g>
      <ellipse cx="200" cy="502" rx="72" ry="12" fill="#241F1A" opacity=".45"></ellipse>
      <rect width="400" height="600" fill="url(#vig)"></rect>
      <rect width="400" height="600" filter="url(#grain)" opacity=".55"></rect>
    </symbol>

    <!-- pose overlay, aligned to the figure above -->
    <symbol id="pose" viewBox="0 0 400 600">
      <g stroke="#3BE3D2" stroke-width="2.6" stroke-linecap="round" opacity=".95">
        <path d="M200 182 L200 236"></path>
        <path d="M168 202 L232 202"></path><path d="M168 202 L200 236"></path><path d="M232 202 L200 236"></path>
        <path d="M168 202 L154 268"></path><path d="M154 268 L160 306"></path>
        <path d="M232 202 L246 268"></path><path d="M246 268 L240 306"></path>
        <path d="M200 236 L170 318"></path><path d="M200 236 L230 318"></path><path d="M170 318 L230 318"></path>
        <path d="M170 318 L182 428"></path><path d="M182 428 L184 492"></path>
        <path d="M230 318 L216 428"></path><path d="M216 428 L214 492"></path>
      </g>
      <g fill="#FFC24D">
        <circle cx="200" cy="152" r="5.4"></circle><circle cx="200" cy="236" r="5.4"></circle>
        <circle cx="168" cy="202" r="5.4"></circle><circle cx="232" cy="202" r="5.4"></circle>
        <circle cx="154" cy="268" r="5"></circle><circle cx="246" cy="268" r="5"></circle>
        <circle cx="160" cy="306" r="5"></circle><circle cx="240" cy="306" r="5"></circle>
        <circle cx="170" cy="318" r="5.4"></circle><circle cx="230" cy="318" r="5.4"></circle>
        <circle cx="182" cy="428" r="5.4"></circle><circle cx="216" cy="428" r="5.4"></circle>
        <circle cx="184" cy="492" r="5"></circle><circle cx="214" cy="492" r="5"></circle>
      </g>
    </symbol>

    <!-- skeleton only, for replay: no video was ever stored -->
    <symbol id="poseonly" viewBox="0 0 400 600">
      <g stroke="#3BE3D2" stroke-width="2.6" stroke-linecap="round">
        <path d="M200 182 L200 236"></path><path d="M168 202 L232 202"></path><path d="M168 202 L200 236"></path><path d="M232 202 L200 236"></path>
        <path d="M168 202 L154 268"></path><path d="M154 268 L160 306"></path><path d="M232 202 L246 268"></path><path d="M246 268 L240 306"></path>
        <path d="M200 236 L170 318"></path><path d="M200 236 L230 318"></path><path d="M170 318 L230 318"></path>
        <path d="M170 318 L182 428"></path><path d="M182 428 L184 492"></path><path d="M230 318 L216 428"></path><path d="M216 428 L214 492"></path>
      </g>
      <circle cx="200" cy="152" r="17" fill="none" stroke="#3BE3D2" stroke-width="2.6"></circle>
      <g fill="#FFC24D">
        <circle cx="200" cy="236" r="5"></circle><circle cx="168" cy="202" r="5"></circle><circle cx="232" cy="202" r="5"></circle>
        <circle cx="154" cy="268" r="4.6"></circle><circle cx="246" cy="268" r="4.6"></circle><circle cx="160" cy="306" r="4.6"></circle><circle cx="240" cy="306" r="4.6"></circle>
        <circle cx="170" cy="318" r="5"></circle><circle cx="230" cy="318" r="5"></circle><circle cx="216" cy="428" r="5"></circle><circle cx="184" cy="492" r="4.6"></circle><circle cx="214" cy="492" r="4.6"></circle>
      </g>
      <circle cx="182" cy="428" r="9" fill="#B5410A" stroke="#0C1414" stroke-width="2"></circle>
    </symbol>

    <!-- line icons -->
    <symbol id="i-chev" viewBox="0 0 24 24"><path d="M9 5l7 7-7 7" fill="none" stroke="currentColor" stroke-width="2" stroke-linecap="round" stroke-linejoin="round"></path></symbol>
    <symbol id="i-check" viewBox="0 0 24 24"><path d="M4 12.5l5.2 5.2L20 7" fill="none" stroke="currentColor" stroke-width="2.2" stroke-linecap="round" stroke-linejoin="round"></path></symbol>
    <symbol id="i-cam" viewBox="0 0 24 24"><path d="M3 8.5A2.5 2.5 0 015.5 6h1.7l1.2-1.8h6.2L15.8 6h2.7A2.5 2.5 0 0121 8.5v8A2.5 2.5 0 0118.5 19h-13A2.5 2.5 0 013 16.5z" fill="none" stroke="currentColor" stroke-width="1.8" stroke-linejoin="round"></path><circle cx="12" cy="12.4" r="3.4" fill="none" stroke="currentColor" stroke-width="1.8"></circle></symbol>
    <symbol id="i-sound" viewBox="0 0 24 24"><path d="M4 9.5h3.5L12 5.5v13L7.5 14.5H4z" fill="none" stroke="currentColor" stroke-width="1.8" stroke-linejoin="round"></path><path d="M15.5 9.2a4 4 0 010 5.6M18 6.8a7.5 7.5 0 010 10.4" fill="none" stroke="currentColor" stroke-width="1.8" stroke-linecap="round"></path></symbol>
    <symbol id="i-shield" viewBox="0 0 24 24"><path d="M12 3l7.5 2.8v6c0 4.6-3.1 8.4-7.5 9.7-4.4-1.3-7.5-5.1-7.5-9.7v-6z" fill="none" stroke="currentColor" stroke-width="1.8" stroke-linejoin="round"></path><path d="M12 8.4v4.4M12 15.8h.01" stroke="currentColor" stroke-width="1.9" stroke-linecap="round"></path></symbol>
    <symbol id="i-flame" viewBox="0 0 24 24"><path d="M12 3.5s5.2 4 5.2 8.6a5.2 5.2 0 01-10.4 0c0-1.8.9-3.1 1.8-4.2.5 1 1.3 1.7 2.1 1.9-.4-2.4.2-4.6 1.3-6.3z" fill="none" stroke="currentColor" stroke-width="1.8" stroke-linejoin="round"></path></symbol>
    <symbol id="i-play" viewBox="0 0 24 24"><path d="M7.5 5.2l11 6.8-11 6.8z" fill="none" stroke="currentColor" stroke-width="1.9" stroke-linejoin="round"></path></symbol>
    <symbol id="i-pause" viewBox="0 0 24 24"><path d="M9 5v14M15 5v14" stroke="currentColor" stroke-width="2" stroke-linecap="round"></path></symbol>
    <symbol id="i-skip" viewBox="0 0 24 24"><path d="M6 5l9 7-9 7zM18 5v14" fill="none" stroke="currentColor" stroke-width="1.9" stroke-linejoin="round" stroke-linecap="round"></path></symbol>
    <symbol id="i-x" viewBox="0 0 24 24"><path d="M6 6l12 12M18 6L6 18" stroke="currentColor" stroke-width="2" stroke-linecap="round"></path></symbol>
    <symbol id="i-back" viewBox="0 0 24 24"><path d="M15 5l-7 7 7 7" fill="none" stroke="currentColor" stroke-width="2" stroke-linecap="round" stroke-linejoin="round"></path></symbol>
    <symbol id="i-home" viewBox="0 0 24 24"><path d="M4 10.5L12 4l8 6.5V20h-5.5v-5.5h-5V20H4z" fill="none" stroke="currentColor" stroke-width="1.7" stroke-linejoin="round"></path></symbol>
    <symbol id="i-chart" viewBox="0 0 24 24"><path d="M4 20h16M7 16.5V10M12 16.5V5.5M17 16.5v-4.5" fill="none" stroke="currentColor" stroke-width="1.8" stroke-linecap="round"></path></symbol>
    <symbol id="i-list" viewBox="0 0 24 24"><path d="M4 6.5h16M4 12h16M4 17.5h10" stroke="currentColor" stroke-width="1.8" stroke-linecap="round"></path></symbol>
    <symbol id="i-lock" viewBox="0 0 24 24"><rect x="4.5" y="10" width="15" height="10" rx="2.5" fill="none" stroke="currentColor" stroke-width="1.8"></rect><path d="M8 10V7.8a4 4 0 018 0V10" fill="none" stroke="currentColor" stroke-width="1.8"></path></symbol>
    <symbol id="i-body" viewBox="0 0 24 24"><circle cx="12" cy="4.6" r="2.4" fill="none" stroke="currentColor" stroke-width="1.7"></circle><path d="M12 7.4v7m0 0l-3 6.2m3-6.2l3 6.2M6.5 10.2L12 8.6l5.5 1.6" fill="none" stroke="currentColor" stroke-width="1.7" stroke-linecap="round"></path></symbol>
  </defs>
<rect id="div-0" x="0" y="0" width="1194" height="834" rx="4" fill="#ecf0f1"/>
<rect id="div-1" x="0" y="0" width="596" height="834" fill="#ffffff"/>
<text id="h1-2" x="36" y="56.46" font-family="IBM Plex Sans" font-size="26" font-weight="600" fill="#101617" letter-spacing="-0.65" xml:space="preserve">Set 2 done — 48s rest</text>
<text id="b2-3" x="36" y="82.02" font-family="IBM Plex Sans" font-size="13.5" font-weight="400" fill="#47575a" xml:space="preserve">You marked rep 6. Here it is again.</text>
<rect id="chip-k-pain-4" x="450" y="50.7" width="110" height="24.33" rx="4" fill="#f9e7dc"/>
<text id="chip-k-pain-5" x="458" y="64.62" font-family="IBM Plex Mono" font-size="11.5" font-weight="500" fill="#b5410a" letter-spacing="0.23" xml:space="preserve">REP 6 FLAGGED</text>
<rect id="cam-6" x="36" y="107.75" width="524" height="430" rx="20" fill="#08100f"/>
<svg id="svg-7" x="36" y="107.75" width="524" height="430" viewBox="0 0 400 600" preserveAspectRatio="xMidYMid slice"><use href="#poseonly" width="400" height="600"></use></svg>
<rect id="ovl-chip-k-dk-8" x="50" y="121.75" width="189.53" height="24.33" rx="4" fill="#ffffff" fill-opacity="0.120"/>
<text id="ovl-chip-k-dk-9" x="58" y="135.67" font-family="IBM Plex Mono" font-size="11.5" font-weight="500" fill="#e5eeec" letter-spacing="0.23" xml:space="preserve">REP 6 · 00:47 INTO SET 2</text>
<svg id="svg-10" x="50" y="505.75" width="18" height="18" viewBox="0 0 18 18" preserveAspectRatio="xMidYMid meet"><use href="#i-play"></use></svg>
<rect id="track-11" x="79" y="511.75" width="379" height="6" rx="3" fill="#ffffff" fill-opacity="0.200"/>
<rect id="i-12" x="79" y="511.75" width="174.33" height="6" rx="3" fill="#3be3d2"/>
<rect id="span-13" x="253.33" y="507.75" width="14" height="14" rx="7" fill="#3be3d2" stroke="#08100f" stroke-width="3"/>
<rect id="span-14" x="374.61" y="510.75" width="8" height="8" rx="4" fill="#b5410a"/>
<text id="mono-15" x="469" y="516.25" font-family="IBM Plex Mono" font-size="11" font-weight="400" fill="#ffffff" fill-opacity="0.700" xml:space="preserve">0:03 / 0:06</text>
<svg id="svg-16" x="36" y="556.75" width="14" height="14" viewBox="0 0 14 14" preserveAspectRatio="xMidYMid meet"><use href="#i-lock"></use></svg>
<text id="span-17" x="58" y="565.67" font-family="IBM Plex Sans" font-size="11.5" font-weight="400" fill="#7c8c8f" xml:space="preserve">Rendered from stored joint positions. There is no video of this rep — there never was, on the</text>
<text id="span-18" x="58" y="581.76" font-family="IBM Plex Sans" font-size="11.5" font-weight="400" fill="#7c8c8f" xml:space="preserve">tablet or anywhere else.</text>
<rect id="card-hair-19" x="632" y="36" width="526" height="308.58" rx="10" fill="#ffffff" stroke="#d6dedf" stroke-width="1"/>
<text id="h2-20" x="646" y="66.28" font-family="IBM Plex Sans" font-size="18" font-weight="600" fill="#101617" letter-spacing="-0.27" xml:space="preserve">Where was it?</text>
<rect id="div-21" x="646" y="87.55" width="498" height="214" rx="8" fill="#e2e8e9"/>
<svg id="svg-22" x="646" y="87.55" width="498" height="214" viewBox="0 0 480 214" preserveAspectRatio="xMidYMid meet">
            <ellipse cx="272" cy="32" rx="19" ry="21" fill="#B9C4C6"></ellipse>
            <rect x="246" y="56" width="52" height="68" rx="12" fill="#B9C4C6"></rect>
            <rect x="222" y="60" width="17" height="54" rx="8" fill="#B9C4C6"></rect>
            <rect x="305" y="60" width="17" height="54" rx="8" fill="#B9C4C6"></rect>
            <rect x="249" y="126" width="20" height="72" rx="9" fill="#B9C4C6"></rect>
            <rect x="275" y="126" width="20" height="72" rx="9" fill="#B9C4C6"></rect>
            <circle cx="259" cy="158" r="19" fill="#B5410A"></circle>
            <circle cx="259" cy="158" r="27" fill="none" stroke="#B5410A" stroke-width="1.5" opacity=".4"></circle>
            <path d="M164 158 h68" stroke="#B5410A" stroke-width="1.2"></path>
          </svg>
<text id="mono-23" x="670" y="246.07" font-family="IBM Plex Mono" font-size="12" font-weight="600" fill="#b5410a" xml:space="preserve">LEFT KNEE</text>
<text id="cap-24" x="646" y="324.57" font-family="IBM Plex Sans" font-size="12" font-weight="400" fill="#7c8c8f" xml:space="preserve">Tap the spot. We log the region, not a diagnosis.</text>
<rect id="card-hair-25" x="632" y="360.58" width="526" height="168.3" rx="10" fill="#ffffff" stroke="#d6dedf" stroke-width="1"/>
<text id="h2-26" x="646" y="390.86" font-family="IBM Plex Sans" font-size="18" font-weight="600" fill="#101617" letter-spacing="-0.27" xml:space="preserve">How did that left knee feel?</text>
<rect id="div-27" x="646" y="412.13" width="92.39" height="73.72" rx="8" fill="#e1f0e7"/>
<text id="mono-28" x="686.19" y="443.32" font-family="IBM Plex Mono" font-size="20" font-weight="600" fill="#1f7a4d" xml:space="preserve">1</text>
<text id="span-29" x="677.69" y="466.43" font-family="IBM Plex Sans" font-size="11.5" font-weight="400" fill="#1f7a4d" xml:space="preserve">None</text>
<rect id="div-30" x="747.39" y="412.13" width="92.41" height="73.72" rx="8" fill="#eaf2e2" stroke="#4f7a1f" stroke-width="2"/>
<text id="mono-31" x="787.59" y="443.32" font-family="IBM Plex Mono" font-size="20" font-weight="600" fill="#4f7a1f" xml:space="preserve">2</text>
<text id="span-32" x="782.09" y="466.43" font-family="IBM Plex Sans" font-size="11.5" font-weight="400" fill="#4f7a1f" xml:space="preserve">Mild</text>
<rect id="div-33" x="848.8" y="412.13" width="92.39" height="73.72" rx="8" fill="#f8ebd9"/>
<text id="mono-34" x="888.98" y="443.32" font-family="IBM Plex Mono" font-size="20" font-weight="600" fill="#a75a0b" xml:space="preserve">3</text>
<text id="span-35" x="868.98" y="466.43" font-family="IBM Plex Sans" font-size="11.5" font-weight="400" fill="#a75a0b" xml:space="preserve">Moderate</text>
<rect id="div-36" x="950.19" y="412.13" width="92.41" height="73.72" rx="8" fill="#f9e7dc"/>
<text id="mono-37" x="990.39" y="443.32" font-family="IBM Plex Mono" font-size="20" font-weight="600" fill="#b5410a" xml:space="preserve">4</text>
<text id="span-38" x="978.89" y="466.43" font-family="IBM Plex Sans" font-size="11.5" font-weight="400" fill="#b5410a" xml:space="preserve">Strong</text>
<rect id="div-39" x="1051.59" y="412.13" width="92.41" height="73.72" rx="8" fill="#f8e5e2"/>
<text id="mono-40" x="1091.8" y="443.32" font-family="IBM Plex Mono" font-size="20" font-weight="600" fill="#a32218" xml:space="preserve">5</text>
<text id="span-41" x="1078.8" y="466.43" font-family="IBM Plex Sans" font-size="11.5" font-weight="400" fill="#a32218" xml:space="preserve">Severe</text>
<text id="cap-42" x="646" y="508.86" font-family="IBM Plex Sans" font-size="12" font-weight="400" fill="#7c8c8f" xml:space="preserve">Your answer is what gets recorded. What we saw only decided which question to ask.</text>
<rect id="btn-43" x="632" y="668.61" width="526" height="52" rx="8" fill="#0d6e68"/>
<text id="btn-44" x="806" y="697.6" font-family="IBM Plex Sans" font-size="15" font-weight="500" fill="#ffffff" xml:space="preserve">Continue — 1 exercise left</text>
<text id="div-45" x="830.5" y="754.26" font-family="IBM Plex Sans" font-size="15" font-weight="500" fill="#47575a" xml:space="preserve">I need to stop here</text>
<svg id="svg-46" x="632" y="782.91" width="13" height="13" viewBox="0 0 13 13" preserveAspectRatio="xMidYMid meet"><use href="#i-shield"></use></svg>
<text id="span-47" x="653" y="791.82" font-family="IBM Plex Sans" font-size="11.5" font-weight="400" fill="#7c8c8f" xml:space="preserve">Coaching aid — not a medical device. It does not diagnose or replace your clinician.</text>
</svg>